<?xml version="1.0" encoding="UTF-8"?>
<!DOCTYPE svg PUBLIC "-//W3C//DTD SVG 1.1//EN" "http://www.w3.org/Graphics/SVG/1.1/DTD/svg11.dtd">
<!-- Creator: CorelDRAW 2020 (64-Bit) -->
<svg xmlns="http://www.w3.org/2000/svg" xml:space="preserve" width="2427.16mm" height="1011.32mm" version="1.1" style="shape-rendering:geometricPrecision; text-rendering:geometricPrecision; image-rendering:optimizeQuality; fill-rule:evenodd; clip-rule:evenodd"
viewBox="0 0 541601 225667.04"
 xmlns:xlink="http://www.w3.org/1999/xlink"
 xmlns:xodm="http://www.corel.com/coreldraw/odm/2003">
 <defs>
  <style type="text/css">
   <![CDATA[
    .str0 {stroke:black;stroke-width:629.75;stroke-miterlimit:22.9256}
    .fil2 {fill:none}
    .fil1 {fill:black}
    .fil0 {fill:black;fill-rule:nonzero}
   ]]>
  </style>
 </defs>
 <g id="Слой_x0020_1">
  <metadata id="CorelCorpID_0Corel-Layer"/>
  <path class="fil0" d="M159487.08 106363.09l-6927.1 -16723.11 -6954.43 16723.53 13881.53 -0.42zm-17074.8 7678.51l-3894.13 9363.56 -10362.25 0 19476.05 -43697.05 9987.8 0 19538.2 43697.05 -10611.64 0 -3878.8 -9363.56 -20255.22 0zm59590.9 10112.49c-3370.96,0 -6502.5,-551.34 -9395.05,-1654.02 -2892.12,-1103.08 -5399.43,-2674.24 -7521.93,-4713.06 -2122.48,-2039.22 -3776.9,-4432.2 -4962.83,-7178.94 -1185.93,-2746.32 -1779.11,-5763.53 -1779.11,-9051.23 0,-3287.72 593.18,-6304.94 1779.11,-9051.68 1185.93,-2746.32 2850.7,-5139.29 4993.89,-7178.51 2143.21,-2039.25 4650.52,-3609.99 7522.35,-4713.06 2871.41,-1102.68 6013.31,-1653.99 9425.71,-1653.99 3787.25,0 7210,655.3 10268.65,1966.32 3059.05,1310.6 5628.9,3235.51 7709.57,5773.88l-6492.15 5993.03c-1498.26,-1706.61 -3162.63,-2986.17 -4993.91,-3839.04 -1830.88,-853.32 -3828.69,-1279.96 -5992.18,-1279.96 -2039.65,0 -3912.37,333.04 -5618.57,998.69 -1706.19,666.08 -3183.72,1623.36 -4432.2,2871.83 -1248.48,1248.48 -2216.11,2725.59 -2902.07,4431.79 -687.21,1706.19 -1030.6,3600.03 -1030.6,5680.7 0,2080.64 343.39,3974.49 1030.6,5680.67 685.96,1706.21 1653.59,3183.32 2902.07,4431.79 1248.48,1248.48 2726.01,2205.76 4432.2,2872.26 1706.21,665.23 3578.92,998.27 5618.57,998.27 2163.49,0 4161.3,-426.65 5992.18,-1279.94 1831.28,-852.89 3495.65,-2153.56 4993.91,-3901.19l6492.15 5992.6c-2080.66,2538.37 -4650.52,4473.63 -7709.57,5805.37 -3058.65,1331.73 -6502.1,1997.41 -10330.79,1997.41zm43259.65 0c-3371.38,0 -6502.53,-551.34 -9395.05,-1654.02 -2892.14,-1103.08 -5399.45,-2674.24 -7521.93,-4713.06 -2122.08,-2039.22 -3776.49,-4432.2 -4962.85,-7178.94 -1185.91,-2746.32 -1779.09,-5763.53 -1779.09,-9051.23 0,-3287.72 593.18,-6304.94 1779.09,-9051.68 1186.36,-2746.32 2850.3,-5139.29 4993.91,-7178.51 2143.21,-2039.25 4650.52,-3609.99 7522.33,-4713.06 2871.41,-1102.68 6013.31,-1653.99 9425.71,-1653.99 3787.27,0 7210.02,655.3 10268.65,1966.32 3059.07,1310.6 5629.33,3235.51 7709.57,5773.88l-6492.15 5993.03c-1498.26,-1706.61 -3162.61,-2986.17 -4993.91,-3839.04 -1830.88,-853.32 -3828.69,-1279.96 -5992.58,-1279.96 -2039.25,0 -3911.96,333.04 -5618.15,998.69 -1706.19,666.08 -3183.74,1623.36 -4432.22,2871.83 -1248.48,1248.48 -2216.11,2725.59 -2902.47,4431.79 -686.79,1706.19 -1030.18,3600.03 -1030.18,5680.7 0,2080.64 343.39,3974.49 1030.18,5680.67 686.36,1706.21 1653.99,3183.32 2902.47,4431.79 1248.48,1248.48 2726.03,2205.76 4432.22,2872.26 1706.19,665.23 3578.9,998.27 5618.15,998.27 2163.89,0 4161.7,-426.65 5992.58,-1279.94 1831.3,-852.89 3495.65,-2153.56 4993.91,-3901.19l6492.15 5992.6c-2080.24,2538.37 -4650.5,4473.63 -7709.57,5805.37 -3058.63,1331.73 -6502.08,1997.41 -10330.77,1997.41zm34333.07 -18976.5l0 10112.49 23783.6 0 0 8115.08 -33834.37 0 0 -43697.05 33022.49 0 0 8115.48 -22971.72 0 0 9488.25 20287.53 0 0 7865.74 -20287.53 0zm31836.14 18227.57l0 -43697.05 18914.36 0c3911.96,0 7283.34,635.42 10112.91,1904.18 2829.57,1269.61 5014.62,3090.13 6554.3,5462.4 1539.66,2371.86 2309.72,5201.83 2309.72,8489.56 0,3245.86 -770.06,6055.15 -2309.72,8426.99 -1539.68,2372.29 -3724.73,4193.21 -6554.3,5462.4 -2829.17,1269.19 -6201.37,1903.38 -10112.91,1903.38l-9152.71 0 351.25 12048.16 -10112.89 0zm10112.89 -20287.93l8239.77 0c3121.19,0 5452.04,-665.68 6991.32,-1996.98 1540.08,-1331.73 2309.72,-3184.57 2309.72,-5556 0,-2413.7 -769.64,-4286.82 -2309.72,-5618.15 -1539.28,-1331.73 -3870.53,-1997.81 -6991.32,-1997.81l-8239.77 0 0 15168.95zm42198.41 20287.93l0 -35456.88 -13983.02 0 0 -8240.18 38078.5 0 0 8240.18 -13982.99 0 0 35456.88 -10112.49 0zm39577.17 -18227.57l0 10112.49 23783.18 0 0 8115.08 -33833.95 0 0 -43697.05 33022.07 0 0 8115.48 -22971.3 0 0 9488.25 20287.1 0 0 7865.74 -20287.1 0zm31835.71 18227.57l0 -43697.05 19850.93 0c4744.13,0 8926.56,905.49 12546.9,2716.06 3620.74,1810.17 6450.74,4338.19 8490.38,7584.07 2038.4,3246.27 3058.22,7095.68 3058.22,11548.61 0,4411.09 -1019.82,8250.53 -3058.22,11517.12 -2039.65,3266.99 -4869.64,5805.37 -8490.38,7615.94 -3620.34,1810.17 -7802.77,2715.25 -12546.9,2715.25l-19850.93 0zm10112.91 -8302.32l9238.47 0c2913.25,0 5441.27,-551.74 7584.47,-1654.42 2143.21,-1102.68 3807.98,-2673.82 4993.89,-4713.06 1185.93,-2038.82 1779.11,-4431.79 1779.11,-7178.51 0,-2788.16 -593.18,-5191.5 -1779.11,-7210.02 -1185.91,-2018.52 -2850.68,-3578.9 -4993.89,-4681.58 -2143.21,-1103.08 -4671.23,-1654.42 -7584.47,-1654.42l-9238.47 0 0 27092.01z"/>
  <path class="fil0" d="M229270.98 150880.97l0 -13935.84 1453.75 0 0 11546.93 8918.82 -11546.93 1334.14 0 0 13935.84 -1453.75 0 0 -11527.08 -8919.26 11527.08 -1333.7 0zm35264.08 -7194.27l-4425.32 -6741.58 1592.76 0 4010.99 6250.98 2916.97 0 0 -6250.98 1433.44 0 0 6250.98 2879.06 0 4029.07 -6250.98 1592.74 0 -4425.77 6741.58 4784.14 7194.27 -1711.9 0 -4267.38 -6390.89 -2879.96 0 0 6390.89 -1433.44 0 0 -6390.89 -2900.73 0 -4266.45 6390.89 -1712.37 0 4784.14 -7194.27zm74790.13 763.66l0 6430.61 -1473.14 0 0 -13935.84 1473.14 0 0 6211.26 8720.24 0 0 -6211.26 1453.28 0 0 13935.84 -1453.28 0 0 -6430.61 -8720.24 0zm14871.92 6430.61l0 -13935.84 1453.3 0 0 4976.86 4379.74 0c1646.03,0 2903.43,368.3 3772.7,1105.33 869.27,736.12 1303.91,1827.89 1303.91,3274.87 0,1499.33 -464.42,2637.6 -1393.27,3413.89 -929.3,776.76 -2256.65,1164.89 -3981.67,1164.89l-5534.69 0zm1453.3 -1174.82l4041.23 0c1287.22,0 2266.16,-285.24 2936.83,-855.73 670.23,-570.93 1005.12,-1407.27 1005.12,-2508.51 0,-1102.16 -331.72,-1914.56 -995.19,-2439.01 -663.47,-524 -1646,-786.24 -2946.76,-786.24l-4041.23 0 0 6589.49zm11865.56 1174.82l0 -13935.84 1452.85 0 0 13935.84 -1452.85 0zm6151.68 0l0 -13935.84 1453.3 0 0 11546.93 8919.26 -11546.93 1333.7 0 0 13935.84 -1453.3 0 0 -11527.08 -8919.26 11527.08 -1333.7 0zm5813.2 -14951.79c-995.19,0 -1781.43,-225.22 -2359.12,-676.54 -577.27,-451.35 -872.89,-1081.86 -885.98,-1891.55l1095.4 0c13.08,531.21 215.29,949.16 607.03,1254.26 391.3,305.55 905.38,458.11 1542.67,458.11 636.82,0 1151.34,-152.56 1543.11,-458.11 391.3,-305.1 593.96,-723.05 607.03,-1254.26l1095.38 0c-13.99,809.69 -311.86,1440.2 -895.89,1891.55 -584.03,451.33 -1367.55,676.54 -2349.64,676.54zm21899.17 15070.94c-1048.43,0 -2017,-175.57 -2906.58,-527.15 -889.13,-352.05 -1659.1,-846.26 -2309.47,-1483.54 -649.92,-636.85 -1158.13,-1386.96 -1522.81,-2249.45 -365.13,-862.96 -547.48,-1805.35 -547.48,-2827.16 0,-1021.83 182.35,-1964.2 547.48,-2827.16 364.68,-862.51 876.03,-1612.62 1532.74,-2249.89 657.13,-636.4 1430.72,-1131.06 2319.4,-1482.64 889.58,-351.58 1858.15,-527.62 2906.58,-527.62 1008.73,0 1957.89,169.25 2847.02,507.76 889.58,338.51 1639.24,845.8 2249.92,1522.81l-936.08 935.61c-570.04,-583.58 -1200.55,-1005.57 -1891.08,-1263.74 -690.09,-259.07 -1433.44,-388.6 -2230.06,-388.6 -835.87,0 -1612.6,142.63 -2328.89,428.32 -716.71,285.24 -1340.46,690.09 -1871.67,1214.09 -530.76,524.45 -945.54,1134.65 -1243.88,1831.5 -298.79,696.87 -448.18,1463.7 -448.18,2299.56 0,836.31 149.39,1602.67 448.18,2299.1 298.34,697.3 713.12,1307.97 1243.88,1831.95 531.21,524.47 1154.96,928.85 1871.67,1214.56 716.28,285.24 1493.02,427.85 2328.89,427.85 796.62,0 1539.97,-132.68 2230.06,-398.06 690.53,-265.4 1321.04,-690.11 1891.08,-1274.12l936.08 935.61c-610.67,676.99 -1360.34,1187.92 -2249.92,1533.18 -889.13,344.82 -1845.05,517.22 -2866.88,517.22zm9635.99 -6569.63l0 5176.35 8381.27 0 0 1274.12 -9854.87 0 0 -13935.84 9556.09 0 0 1274.12 -8082.48 0 0 4957 7206.45 0 0 1254.26 -7206.45 0zm11646.23 6450.47l0 -13935.84 5216.07 0c1181.13,0 2196.63,188.67 3046.04,566.89 849.41,378.67 1503.39,922.51 1961.06,1632.46 458.09,710.42 686.47,1569.76 686.47,2578.02 0,982.56 -228.39,1828.8 -686.47,2538.75 -457.66,710.42 -1111.65,1257.43 -1961.06,1642.41 -849.41,384.99 -1865.35,577.27 -3046.04,577.27l-3742.91 0 0 4400.04 -1473.16 0zm1473.16 -5694.02l3702.72 0c1394.19,0 2452.55,-302.4 3175.6,-905.84 723.05,-603.87 1085.45,-1456.45 1085.45,-2558.61 0,-1114.35 -361.96,-1977.75 -1085.45,-2587.95 -722.58,-610.2 -1781.88,-915.3 -3175.6,-915.3l-3702.72 0 0 6967.71zm20700.43 -1505.2c709.05,148.95 1292.17,398.98 1756.59,748.75 808.8,610.2 1214.09,1506.56 1214.09,2687.7 0,1194.23 -421.09,2120.38 -1264.19,2777.07 -842.65,657.15 -2106.84,985.71 -3792.11,985.71l-6171.99 0 0 -13935.84 5793.32 0c1473.16,0 2631.29,301.96 3473.91,905.38 843.1,603.89 1264.19,1489.87 1264.19,2657.91 0,1154.51 -405.29,2027.4 -1214.54,2618.19 -312.31,227.47 -672.04,415.69 -1059.28,555.15zm-6804.3 6024.4l4718.69 0c1180.69,0 2076.58,-218.9 2687.25,-657.13 610.65,-437.8 915.75,-1114.35 915.75,-2030.57 0,-902.65 -305.1,-1566.12 -915.75,-1990.83 -610.67,-424.71 -1506.56,-636.85 -2687.25,-636.85l-4718.69 0 0 5315.37zm0 -6450.47l4260.58 0c1074.63,0 1901.03,-215.29 2478.72,-646.75 577.27,-431.49 866.12,-1071.93 866.12,-1921.34 0,-849.41 -288.86,-1489.4 -866.12,-1921.32 -577.69,-431.02 -1404.1,-646.78 -2478.72,-646.78l-4260.58 0 0 5136.19zm13457.88 7625.29l0 -13935.84 1453.3 0 0 11546.93 8919.26 -11546.93 1333.7 0 0 13935.84 -1453.3 0 0 -11527.08 -8919.26 11527.08 -1333.7 0zm22496.74 119.16c-1048.45,0 -2017.47,-175.57 -2907.05,-527.15 -889.13,-352.05 -1658.66,-846.26 -2309.03,-1483.54 -650.37,-636.85 -1158.13,-1386.96 -1523.25,-2249.45 -364.68,-862.96 -547.01,-1805.35 -547.01,-2827.16 0,-1021.83 182.33,-1964.2 547.01,-2827.16 365.13,-862.51 876.05,-1612.62 1533.18,-2249.89 656.71,-636.4 1430.29,-1131.06 2319.4,-1482.64 889.13,-351.58 1858.15,-527.62 2906.6,-527.62 1008.29,0 1957.44,169.25 2847.02,507.76 889.13,338.51 1638.8,845.8 2249.45,1522.81l-935.61 935.61c-570.48,-583.58 -1200.99,-1005.57 -1891.55,-1263.74 -690.09,-259.07 -1432.97,-388.6 -2229.59,-388.6 -835.87,0 -1612.62,142.63 -2329.33,428.32 -716.73,285.24 -1340.46,690.09 -1871.24,1214.09 -530.76,524.45 -945.99,1134.65 -1244.33,1831.5 -298.32,696.87 -448.16,1463.7 -448.16,2299.56 0,836.31 149.84,1602.67 448.16,2299.1 298.34,697.3 713.56,1307.97 1244.33,1831.95 530.79,524.47 1154.51,928.85 1871.24,1214.56 716.71,285.24 1493.46,427.85 2329.33,427.85 796.62,0 1539.5,-132.68 2229.59,-398.06 690.56,-265.4 1321.07,-690.11 1891.55,-1274.12l935.61 935.61c-610.65,676.99 -1360.32,1187.92 -2249.45,1533.18 -889.58,344.82 -1845.05,517.22 -2866.88,517.22zm-191160.77 -6569.63l0 5176.35 8381.27 0 0 1274.12 -9854.87 0 0 -13935.84 9556.11 0 0 1274.12 -8082.5 0 0 4957 7206.45 0 0 1254.26 -7206.45 0zm29464.45 0l0 5176.35 8381.27 0 0 1274.12 -9854.87 0 0 -13935.84 9556.09 0 0 1274.12 -8082.48 0 0 4957 7206.45 0 0 1254.26 -7206.45 0zm11646.21 6450.47l0 -13935.84 5216.07 0c1181.16,0 2196.65,188.67 3046.06,566.89 849.41,378.67 1503.39,922.51 1961.06,1632.46 458.09,710.42 686.47,1569.76 686.47,2578.02 0,982.56 -228.39,1828.8 -686.47,2538.75 -457.66,710.42 -1111.65,1257.43 -1961.06,1642.41 -849.41,384.99 -1865.35,577.27 -3046.06,577.27l-3742.91 0 0 4400.04 -1473.16 0zm1473.16 -5694.02l3702.75 0c1394.17,0 2452.55,-302.4 3175.6,-905.84 723.02,-603.87 1085.45,-1456.45 1085.45,-2558.61 0,-1114.35 -361.96,-1977.75 -1085.45,-2587.95 -722.6,-610.2 -1781.88,-915.3 -3175.6,-915.3l-3702.75 0 0 6967.71zm-29464.9 -736.59l0 6430.61 -1473.14 0 0 -13935.84 1473.14 0 0 6211.26 8720.24 0 0 -6211.26 1453.28 0 0 13935.84 -1453.28 0 0 -6430.61 -8720.24 0zm-48795.53 0l0 6430.61 -1473.16 0 0 -13935.84 1473.16 0 0 6211.26 8720.22 0 0 -6211.26 1453.3 0 0 13935.84 -1453.3 0 0 -6430.61 -8720.22 0z"/>
  <polygon class="fil1" points="49236.5,116645.48 88792.78,133780.82 138657.52,66168.27 94865.47,164421.01 "/>
  <path class="fil2 str0" d="M485804.8 61244.04c3740.75,0 6763.58,3041.71 6763.58,6763.56 0,3740.75 -3022.83,6782.48 -6763.58,6782.48 -3740.75,0 -6763.58,-3041.73 -6763.58,-6782.48 0,-3721.85 3022.83,-6763.56 6763.58,-6763.56z"/>
  <path class="fil0" d="M486331.95 72265.79c-634.12,0 -1223.13,-103.81 -1766.97,-310.97 -543.86,-207.61 -1015.05,-502.78 -1414.5,-886.43 -398.98,-383.18 -709.95,-833.14 -932.91,-1349.94 -223.41,-516.31 -334.89,-1083.64 -334.89,-1701.97 0,-618.33 111.48,-1185.66 334.89,-1701.99 222.96,-516.77 535.74,-966.74 938.78,-1349.94 403.04,-383.63 874.69,-679.24 1414.5,-886.41 540.23,-207.61 1131.04,-310.97 1772.84,-310.97 712.2,0 1355.81,123.22 1930.8,369.63 575.46,246.44 1058.38,608.4 1449.68,1085.92l-1220.85 1126.98c-281.65,-320.9 -594.4,-561.92 -938.78,-722.13 -344.37,-160.24 -720.32,-240.57 -1126.98,-240.57 -383.65,0 -735.68,62.75 -1056.58,187.75 -320.9,125.03 -598.47,305.1 -833.61,539.8 -234.7,235.15 -416.58,512.71 -545.67,833.61 -129.09,320.9 -193.62,677.01 -193.62,1068.31 0,391.3 64.53,747.41 193.62,1068.31 129.09,320.9 310.97,598.47 545.67,833.17 235.15,234.68 512.71,414.78 833.61,540.23 320.9,125.03 672.93,187.77 1056.58,187.77 406.65,0 782.6,-80.35 1126.98,-240.57 344.37,-160.68 657.13,-405.29 938.78,-733.87l1220.85 1126.98c-391.3,477.52 -874.22,841.29 -1449.68,1091.79 -574.99,250.48 -1222.66,375.5 -1942.54,375.5z"/>
  <rect class="fil2" x="0.01" y="-0" width="541600.99" height="225667.05"/>
 </g>
</svg>
