<?xml version="1.0" encoding="UTF-8"?>
<!DOCTYPE svg PUBLIC "-//W3C//DTD SVG 1.1//EN" "http://www.w3.org/Graphics/SVG/1.1/DTD/svg11.dtd">
<!-- Creator: CorelDRAW 2020 (64-Bit) -->
<svg xmlns="http://www.w3.org/2000/svg" xml:space="preserve" width="2427.16mm" height="1011.32mm" version="1.1" style="shape-rendering:geometricPrecision; text-rendering:geometricPrecision; image-rendering:optimizeQuality; fill-rule:evenodd; clip-rule:evenodd"
viewBox="0 0 541601 225667.06"
 xmlns:xlink="http://www.w3.org/1999/xlink"
 xmlns:xodm="http://www.corel.com/coreldraw/odm/2003">
 <defs>
  <style type="text/css">
   <![CDATA[
    .str0 {stroke:white;stroke-width:629.75;stroke-miterlimit:22.9256}
    .fil0 {fill:black}
    .fil2 {fill:white}
    .fil1 {fill:white;fill-rule:nonzero}
   ]]>
  </style>
 </defs>
 <g id="Слой_x0020_1">
  <metadata id="CorelCorpID_0Corel-Layer"/>
  <rect class="fil0" x="0.01" y="0.01" width="541600.99" height="225667.05"/>
  <path class="fil1" d="M159487.08 106363.09l-6927.1 -16723.11 -6954.43 16723.53 13881.53 -0.42zm-17074.78 7678.51l-3894.13 9363.56 -10362.28 0 19476.05 -43697.05 9987.82 0 19538.17 43697.05 -10611.61 0 -3878.83 -9363.56 -20255.19 0zm59590.9 10112.49c-3370.98,0 -6502.53,-551.34 -9395.07,-1654.02 -2892.12,-1103.08 -5399.43,-2674.24 -7521.91,-4713.04 -2122.5,-2039.25 -3776.92,-4432.22 -4962.85,-7178.96 -1185.93,-2746.32 -1779.09,-5763.53 -1779.09,-9051.23 0,-3287.7 593.16,-6304.94 1779.09,-9051.65 1185.93,-2746.32 2850.7,-5139.31 4993.91,-7178.53 2143.21,-2039.22 4650.52,-3609.99 7522.33,-4713.06 2871.41,-1102.65 6013.31,-1653.99 9425.71,-1653.99 3787.27,0 7210.02,655.3 10268.65,1966.32 3059.07,1310.6 5628.93,3235.51 7709.57,5773.88l-6492.15 5993.03c-1498.26,-1706.61 -3162.61,-2986.15 -4993.91,-3839.04 -1830.88,-853.32 -3828.69,-1279.96 -5992.18,-1279.96 -2039.65,0 -3912.37,333.04 -5618.55,998.69 -1706.21,666.08 -3183.74,1623.36 -4432.22,2871.83 -1248.48,1248.48 -2216.11,2725.61 -2902.07,4431.79 -687.19,1706.21 -1030.58,3600.03 -1030.58,5680.7 0,2080.64 343.39,3974.49 1030.58,5680.67 685.96,1706.21 1653.59,3183.34 2902.07,4431.82 1248.48,1248.48 2726.01,2205.76 4432.22,2872.24 1706.19,665.25 3578.9,998.29 5618.55,998.29 2163.49,0 4161.3,-426.67 5992.18,-1279.96 1831.3,-852.89 3495.65,-2153.56 4993.91,-3901.19l6492.15 5992.6c-2080.64,2538.37 -4650.5,4473.63 -7709.57,5805.37 -3058.63,1331.75 -6502.08,1997.41 -10330.77,1997.41zm43259.63 0c-3371.38,0 -6502.5,-551.34 -9395.05,-1654.02 -2892.12,-1103.08 -5399.43,-2674.24 -7521.93,-4713.04 -2122.08,-2039.25 -3776.49,-4432.22 -4962.83,-7178.96 -1185.93,-2746.32 -1779.11,-5763.53 -1779.11,-9051.23 0,-3287.7 593.18,-6304.94 1779.11,-9051.65 1186.33,-2746.32 2850.28,-5139.31 4993.91,-7178.53 2143.19,-2039.22 4650.5,-3609.99 7522.33,-4713.06 2871.41,-1102.65 6013.31,-1653.99 9425.71,-1653.99 3787.25,0 7210,655.3 10268.65,1966.32 3059.05,1310.6 5629.33,3235.51 7709.57,5773.88l-6492.15 5993.03c-1498.26,-1706.61 -3162.61,-2986.15 -4993.91,-3839.04 -1830.88,-853.32 -3828.69,-1279.96 -5992.6,-1279.96 -2039.22,0 -3911.94,333.04 -5618.13,998.69 -1706.21,666.08 -3183.74,1623.36 -4432.22,2871.83 -1248.48,1248.48 -2216.11,2725.61 -2902.49,4431.79 -686.79,1706.21 -1030.18,3600.03 -1030.18,5680.7 0,2080.64 343.39,3974.49 1030.18,5680.67 686.38,1706.21 1654.02,3183.34 2902.49,4431.82 1248.48,1248.48 2726.01,2205.76 4432.22,2872.24 1706.19,665.25 3578.9,998.29 5618.13,998.29 2163.92,0 4161.73,-426.67 5992.6,-1279.96 1831.3,-852.89 3495.65,-2153.56 4993.91,-3901.19l6492.15 5992.6c-2080.24,2538.37 -4650.52,4473.63 -7709.57,5805.37 -3058.65,1331.75 -6502.1,1997.41 -10330.79,1997.41zm34333.09 -18976.5l0 10112.49 23783.58 0 0 8115.08 -33834.35 0 0 -43697.05 33022.47 0 0 8115.51 -22971.7 0 0 9488.25 20287.53 0 0 7865.72 -20287.53 0zm31836.14 18227.57l0 -43697.05 18914.36 0c3911.94,0 7283.32,635.42 10112.91,1904.18 2829.57,1269.61 5014.62,3090.13 6554.27,5462.4 1539.68,2371.86 2309.74,5201.86 2309.74,8489.56 0,3245.86 -770.06,6055.15 -2309.74,8427.01 -1539.66,2372.26 -3724.7,4193.19 -6554.27,5462.37 -2829.17,1269.19 -6201.37,1903.38 -10112.91,1903.38l-9152.71 0 351.25 12048.16 -10112.89 0zm10112.89 -20287.93l8239.77 0c3121.19,0 5452.04,-665.65 6991.3,-1996.98 1540.1,-1331.73 2309.74,-3184.57 2309.74,-5556 0,-2413.7 -769.64,-4286.82 -2309.74,-5618.15 -1539.25,-1331.73 -3870.5,-1997.81 -6991.3,-1997.81l-8239.77 0 0 15168.95zm42198.41 20287.93l0 -35456.88 -13983.02 0 0 -8240.18 38078.5 0 0 8240.18 -13982.99 0 0 35456.88 -10112.49 0zm39577.17 -18227.57l0 10112.49 23783.18 0 0 8115.08 -33833.95 0 0 -43697.05 33022.07 0 0 8115.51 -22971.3 0 0 9488.25 20287.13 0 0 7865.72 -20287.13 0zm31835.73 18227.57l0 -43697.05 19850.93 0c4744.13,0 8926.56,905.49 12546.88,2716.08 3620.76,1810.15 6450.74,4338.16 8490.38,7584.05 2038.4,3246.29 3058.22,7095.68 3058.22,11548.61 0,4411.09 -1019.82,8250.53 -3058.22,11517.12 -2039.65,3266.99 -4869.62,5805.37 -8490.38,7615.96 -3620.32,1810.15 -7802.75,2715.23 -12546.88,2715.23l-19850.93 0zm10112.89 -8302.32l9238.47 0c2913.25,0 5441.27,-551.74 7584.47,-1654.42 2143.21,-1102.65 3807.98,-2673.82 4993.91,-4713.04 1185.93,-2038.82 1779.09,-4431.82 1779.09,-7178.53 0,-2788.16 -593.16,-5191.5 -1779.09,-7210.02 -1185.93,-2018.52 -2850.7,-3578.9 -4993.91,-4681.58 -2143.21,-1103.08 -4671.23,-1654.42 -7584.47,-1654.42l-9238.47 0 0 27092.01z"/>
  <path class="fil1" d="M229271 150880.99l0 -13935.84 1453.75 0 0 11546.93 8918.82 -11546.93 1334.14 0 0 13935.84 -1453.75 0 0 -11527.08 -8919.29 11527.08 -1333.67 0zm35264.08 -7194.27l-4425.32 -6741.58 1592.74 0 4011.02 6250.98 2916.97 0 0 -6250.98 1433.44 0 0 6250.98 2879.06 0 4029.05 -6250.98 1592.76 0 -4425.79 6741.58 4784.16 7194.27 -1711.92 0 -4267.36 -6390.89 -2879.96 0 0 6390.89 -1433.44 0 0 -6390.89 -2900.73 0 -4266.47 6390.89 -1712.34 0 4784.14 -7194.27zm74790.13 763.66l0 6430.61 -1473.16 0 0 -13935.84 1473.16 0 0 6211.26 8720.24 0 0 -6211.26 1453.28 0 0 13935.84 -1453.28 0 0 -6430.61 -8720.24 0zm14871.92 6430.61l0 -13935.84 1453.3 0 0 4976.86 4379.74 0c1646.03,0 2903.43,368.27 3772.7,1105.31 869.27,736.12 1303.91,1827.91 1303.91,3274.87 0,1499.33 -464.42,2637.6 -1393.27,3413.91 -929.3,776.73 -2256.65,1164.89 -3981.67,1164.89l-5534.69 0zm1453.3 -1174.82l4041.23 0c1287.22,0 2266.16,-285.24 2936.83,-855.75 670.23,-570.93 1005.12,-1407.24 1005.12,-2508.51 0,-1102.14 -331.72,-1914.56 -995.19,-2439.01 -663.47,-524 -1646,-786.22 -2946.76,-786.22l-4041.23 0 0 6589.49zm11865.56 1174.82l0 -13935.84 1452.85 0 0 13935.84 -1452.85 0zm6151.68 0l0 -13935.84 1453.3 0 0 11546.93 8919.26 -11546.93 1333.7 0 0 13935.84 -1453.3 0 0 -11527.08 -8919.26 11527.08 -1333.7 0zm5813.2 -14951.81c-995.19,0 -1781.43,-225.22 -2359.12,-676.54 -577.27,-451.33 -872.89,-1081.86 -885.98,-1891.55l1095.4 0c13.08,531.23 215.29,949.16 607.03,1254.26 391.3,305.57 905.38,458.11 1542.67,458.11 636.82,0 1151.34,-152.54 1543.11,-458.11 391.3,-305.1 593.96,-723.02 607.03,-1254.26l1095.4 0c-13.99,809.69 -311.89,1440.22 -895.91,1891.55 -584.03,451.33 -1367.55,676.54 -2349.64,676.54zm21899.19 15070.97c-1048.45,0 -2017.02,-175.59 -2906.6,-527.17 -889.13,-352.03 -1659.1,-846.24 -2309.47,-1483.54 -649.92,-636.82 -1158.13,-1386.94 -1522.81,-2249.45 -365.13,-862.96 -547.48,-1805.33 -547.48,-2827.16 0,-1021.81 182.35,-1964.2 547.48,-2827.16 364.68,-862.49 876.03,-1612.6 1532.74,-2249.89 657.13,-636.38 1430.72,-1131.04 2319.4,-1482.64 889.58,-351.58 1858.15,-527.6 2906.6,-527.6 1008.71,0 1957.87,169.25 2847,507.74 889.58,338.51 1639.24,845.82 2249.92,1522.81l-936.08 935.61c-570.04,-583.56 -1200.55,-1005.57 -1891.08,-1263.72 -690.09,-259.07 -1433.44,-388.6 -2230.06,-388.6 -835.87,0 -1612.6,142.61 -2328.89,428.3 -716.71,285.26 -1340.46,690.11 -1871.67,1214.09 -530.76,524.45 -945.54,1134.65 -1243.88,1831.52 -298.79,696.85 -448.18,1463.68 -448.18,2299.54 0,836.34 149.39,1602.69 448.18,2299.1 298.34,697.32 713.12,1307.97 1243.88,1831.97 531.21,524.45 1154.96,928.85 1871.67,1214.54 716.28,285.24 1493.02,427.87 2328.89,427.87 796.62,0 1539.97,-132.7 2230.06,-398.08 690.53,-265.38 1321.04,-690.09 1891.08,-1274.12l936.08 935.61c-610.67,677.01 -1360.34,1187.92 -2249.92,1533.18 -889.13,344.82 -1845.05,517.24 -2866.86,517.24zm9635.97 -6569.63l0 5176.35 8381.27 0 0 1274.12 -9854.87 0 0 -13935.84 9556.11 0 0 1274.12 -8082.5 0 0 4957 7206.45 0 0 1254.26 -7206.45 0zm11646.23 6450.47l0 -13935.84 5216.07 0c1181.13,0 2196.63,188.64 3046.04,566.87 849.41,378.67 1503.39,922.53 1961.06,1632.48 458.11,710.39 686.47,1569.73 686.47,2578.02 0,982.54 -228.36,1828.8 -686.47,2538.75 -457.66,710.39 -1111.65,1257.4 -1961.06,1642.41 -849.41,384.99 -1865.35,577.25 -3046.04,577.25l-3742.91 0 0 4400.06 -1473.16 0zm1473.16 -5694.04l3702.75 0c1394.17,0 2452.55,-302.4 3175.57,-905.82 723.05,-603.89 1085.47,-1456.47 1085.47,-2558.61 0,-1114.35 -361.98,-1977.75 -1085.47,-2587.95 -722.58,-610.2 -1781.85,-915.3 -3175.57,-915.3l-3702.75 0 0 6967.69zm20700.43 -1505.2c709.05,148.95 1292.17,398.98 1756.59,748.77 808.8,610.2 1214.09,1506.54 1214.09,2687.7 0,1194.23 -421.09,2120.36 -1264.19,2777.04 -842.63,657.15 -2106.84,985.73 -3792.11,985.73l-6171.99 0 0 -13935.84 5793.32 0c1473.16,0 2631.29,301.93 3473.94,905.38 843.07,603.89 1264.19,1489.85 1264.19,2657.91 0,1154.51 -405.31,2027.4 -1214.54,2618.19 -312.33,227.47 -672.06,415.67 -1059.3,555.13zm-6804.3 6024.42l4718.69 0c1180.69,0 2076.6,-218.9 2687.25,-657.15 610.65,-437.8 915.75,-1114.35 915.75,-2030.54 0,-902.68 -305.1,-1566.14 -915.75,-1990.85 -610.65,-424.71 -1506.56,-636.82 -2687.25,-636.82l-4718.69 0 0 5315.37zm0 -6450.47l4260.6 0c1074.61,0 1901.01,-215.29 2478.72,-646.78 577.25,-431.47 866.1,-1071.91 866.1,-1921.32 0,-849.41 -288.86,-1489.4 -866.1,-1921.34 -577.71,-431.02 -1404.12,-646.75 -2478.72,-646.75l-4260.6 0 0 5136.19zm13457.88 7625.29l0 -13935.84 1453.3 0 0 11546.93 8919.26 -11546.93 1333.7 0 0 13935.84 -1453.3 0 0 -11527.08 -8919.26 11527.08 -1333.7 0zm22496.76 119.16c-1048.45,0 -2017.47,-175.59 -2907.05,-527.17 -889.13,-352.03 -1658.66,-846.24 -2309.03,-1483.54 -650.39,-636.82 -1158.13,-1386.94 -1523.25,-2249.45 -364.68,-862.96 -547.03,-1805.33 -547.03,-2827.16 0,-1021.81 182.35,-1964.2 547.03,-2827.16 365.13,-862.49 876.03,-1612.6 1533.18,-2249.89 656.68,-636.38 1430.27,-1131.04 2319.4,-1482.64 889.13,-351.58 1858.15,-527.6 2906.6,-527.6 1008.27,0 1957.42,169.25 2847,507.74 889.13,338.51 1638.8,845.82 2249.45,1522.81l-935.61 935.61c-570.48,-583.56 -1200.99,-1005.57 -1891.53,-1263.72 -690.09,-259.07 -1432.99,-388.6 -2229.61,-388.6 -835.87,0 -1612.6,142.61 -2329.33,428.3 -716.71,285.26 -1340.46,690.11 -1871.22,1214.09 -530.76,524.45 -946.01,1134.65 -1244.33,1831.52 -298.34,696.85 -448.18,1463.68 -448.18,2299.54 0,836.34 149.84,1602.69 448.18,2299.1 298.32,697.32 713.56,1307.97 1244.33,1831.97 530.76,524.45 1154.51,928.85 1871.22,1214.54 716.73,285.24 1493.46,427.87 2329.33,427.87 796.62,0 1539.52,-132.7 2229.61,-398.08 690.53,-265.38 1321.04,-690.09 1891.53,-1274.12l935.61 935.61c-610.65,677.01 -1360.32,1187.92 -2249.45,1533.18 -889.58,344.82 -1845.05,517.24 -2866.86,517.24zm-191160.79 -6569.63l0 5176.35 8381.27 0 0 1274.12 -9854.87 0 0 -13935.84 9556.09 0 0 1274.12 -8082.48 0 0 4957 7206.45 0 0 1254.26 -7206.45 0zm29464.45 0l0 5176.35 8381.27 0 0 1274.12 -9854.87 0 0 -13935.84 9556.09 0 0 1274.12 -8082.48 0 0 4957 7206.45 0 0 1254.26 -7206.45 0zm11646.21 6450.47l0 -13935.84 5216.07 0c1181.16,0 2196.65,188.64 3046.06,566.87 849.41,378.67 1503.39,922.53 1961.04,1632.48 458.11,710.39 686.5,1569.73 686.5,2578.02 0,982.54 -228.39,1828.8 -686.5,2538.75 -457.64,710.39 -1111.62,1257.4 -1961.04,1642.41 -849.41,384.99 -1865.38,577.25 -3046.06,577.25l-3742.91 0 0 4400.06 -1473.16 0zm1473.16 -5694.04l3702.75 0c1394.17,0 2452.55,-302.4 3175.6,-905.82 723.02,-603.89 1085.45,-1456.47 1085.45,-2558.61 0,-1114.35 -361.96,-1977.75 -1085.45,-2587.95 -722.6,-610.2 -1781.88,-915.3 -3175.6,-915.3l-3702.75 0 0 6967.69zm-29464.9 -736.57l0 6430.61 -1473.16 0 0 -13935.84 1473.16 0 0 6211.26 8720.22 0 0 -6211.26 1453.3 0 0 13935.84 -1453.3 0 0 -6430.61 -8720.22 0zm-48795.55 0l0 6430.61 -1473.14 0 0 -13935.84 1473.14 0 0 6211.26 8720.24 0 0 -6211.26 1453.3 0 0 13935.84 -1453.3 0 0 -6430.61 -8720.24 0z"/>
  <polygon class="fil2" points="49236.5,116645.48 88792.78,133780.84 138657.54,66168.27 94865.47,164421.01 "/>
  <path class="fil0 str0" d="M485803.46 61246.03c3739.12,0 6770.01,3030.89 6770.01,6770.01 0,3739.1 -3030.89,6770.01 -6770.01,6770.01 -3739.1,0 -6770.01,-3030.91 -6770.01,-6770.01 0,-3739.12 3030.91,-6770.01 6770.01,-6770.01z"/>
  <path class="fil1" d="M486331.97 72265.79c-634.12,0 -1223.11,-103.81 -1766.97,-310.97 -543.86,-207.61 -1015.05,-502.78 -1414.47,-886.41 -399,-383.2 -709.95,-833.17 -932.91,-1349.94 -223.41,-516.33 -334.89,-1083.67 -334.89,-1701.99 0,-618.33 111.48,-1185.66 334.89,-1701.97 222.96,-516.8 535.72,-966.76 938.78,-1349.94 403.04,-383.65 874.67,-679.27 1414.47,-886.43 540.25,-207.61 1131.04,-310.97 1772.84,-310.97 712.2,0 1355.81,123.22 1930.8,369.63 575.46,246.44 1058.38,608.4 1449.68,1085.92l-1220.85 1126.98c-281.63,-320.9 -594.4,-561.92 -938.78,-722.13 -344.35,-160.22 -720.32,-240.57 -1126.98,-240.57 -383.63,0 -735.68,62.75 -1056.58,187.77 -320.9,125 -598.47,305.1 -833.61,539.78 -234.7,235.15 -416.58,512.71 -545.67,833.61 -129.07,320.9 -193.62,677.01 -193.62,1068.31 0,391.3 64.55,747.41 193.62,1068.31 129.09,320.9 310.97,598.47 545.67,833.17 235.15,234.68 512.71,414.78 833.61,540.25 320.9,125 672.95,187.75 1056.58,187.75 406.65,0 782.62,-80.33 1126.98,-240.57 344.37,-160.66 657.15,-405.29 938.78,-733.87l1220.85 1126.98c-391.3,477.52 -874.22,841.29 -1449.68,1091.79 -574.99,250.48 -1222.66,375.5 -1942.54,375.5z"/>
 </g>
</svg>
